Simulation
nRows=28
nColumns=15
endheader
time  TH_x TH_y TH_z SC_y  SC_z  SC_x  AC_y  AC_z  AC_x  GH_y  GH_z  GH_yy  EL_x  PS_y
1.55  0.000000  0.000000  0.000000  -33.03230610759657  6.6914453163211585  28.51863837960332  54.48455351450643  6.091452636244188  -9.787378796224438  22.389380682670026  54.87787470629643  -20.922434191547534  17.956478974754777  0.000000
1.581  0.000000  0.000000  0.000000  -33.44738520904266  7.022670381274375  29.525959348715155  54.53763100601247  5.8787143715503705  -9.667194866773198  22.186918147158295  55.27586019484605  -20.92872782290471  17.91963988456592  0.000000
1.612  0.000000  0.000000  0.000000  -33.83004958664645  7.311361277017154  30.353084875956146  54.627531012393604  5.676696858489667  -9.49521960043889  21.941418762049846  55.66571826867167  -20.871558517457515  17.89118665130477  0.000000
1.643  0.000000  0.000000  0.000000  -34.16781372118286  7.534732494439969  31.00081716692963  54.736794321183766  5.522846722374859  -9.308849949138255  21.684990731381152  56.02112210091164  -20.794388752419056  17.887823511124246  0.000000
1.674  0.000000  0.000000  0.000000  -34.47066821466822  7.693389582806759  31.492962670535587  54.8511582750775  5.432712354663994  -9.128455831004825  21.459212394688233  56.30495962273351  -20.731062778333026  17.9105753578107  0.000000
1.705  0.000000  0.000000  0.000000  -34.75731135582194  7.803336106372909  31.86464208605263  54.96136524860561  5.395123528966855  -8.960914796552053  21.302904850473745  56.48460333592629  -20.690894958714505  17.94759025404395  0.000000
1.736  0.000000  0.000000  0.000000  -35.031301503278016  7.876600509049192  32.14338990632793  55.05992971303292  5.389517999134532  -8.818768418944172  21.24276936649139  56.542759800534434  -20.671544145207548  17.986806677125863  0.000000
1.767  0.000000  0.000000  0.000000  -35.271203282052376  7.91749097061954  32.33755955497026  55.135313075181564  5.391762723799854  -8.723929759867069  21.286581895940564  56.483828645973375  -20.66883051299805  18.021088413641444  0.000000
1.798  0.000000  0.000000  0.000000  -35.43874015669017  7.924809670374208  32.439983645253264  55.173413354642264  5.377286399160223  -8.706198240582337  21.426291995027643  56.32962352315992  -20.682486806589342  18.047088613836056  0.000000
1.829  0.000000  0.000000  0.000000  -35.498640704208256  7.894309212318614  32.44012028920646  55.16227437110662  5.3279117866012236  -8.790444112524842  21.647966471346695  56.102696625918  -20.718764671398514  18.06359587372761  0.000000
1.8599999999999999  0.000000  0.000000  0.000000  -35.435309884064935  7.819131016449503  32.33769216051506  55.103452153763136  5.236450567456983  -8.987157471479472  21.936308638793406  55.810308231487376  -20.799782363114534  18.070988599635232  0.000000
1.891  0.000000  0.000000  0.000000  -35.25505991210919  7.6887937821188475  32.1480264667768  55.01383766721526  5.106255925384981  -9.289751453128702  22.275431442565456  55.44032295613277  -20.96016079180592  18.07180289905533  0.000000
1.922  0.000000  0.000000  0.000000  -34.97685589975779  7.492458652689777  31.89202622274687  54.92024486986513  4.944952131083487  -9.681081986398073  22.647744529184074  54.97437931072194  -21.232319621650337  18.07014342817526  0.000000
1.953  0.000000  0.000000  0.000000  -34.630657003496275  7.228141385091982  31.575941020710985  54.849928599490816  4.755567136292436  -10.128501646787115  23.03460651797699  54.40582497089577  -21.61770179491321  18.071595686857172  0.000000
1.984  0.000000  0.000000  0.000000  -34.257561745861494  6.910834702740718  31.179446960015824  54.82518970421299  4.529386521343145  -10.581550210763734  23.41668392735343  53.75171395377725  -22.07354635578606  18.082427482474476  0.000000
2.015  0.000000  0.000000  0.000000  -33.89455310736876  6.563984466377808  30.665808963926864  54.85559766407774  4.258387801755475  -10.984013236185197  23.773518194011547  53.04132785079537  -22.525786191875962  18.109465262872778  0.000000
2.046  0.000000  0.000000  0.000000  -33.55937741060755  6.2030234850319665  30.00547723596305  54.93210115678244  3.9558630528129646  -11.297848097562666  24.095342835475975  52.29397789617394  -22.90874161646947  18.16050895619698  0.000000
2.077  0.000000  0.000000  0.000000  -33.251572793006844  5.830484882651817  29.187909755470127  55.03447635903006  3.6583409281393724  -11.508817504480964  24.38523119726247  51.512186815811745  -23.18915437682101  18.238704742296864  0.000000
2.108  0.000000  0.000000  0.000000  -32.962376561496036  5.4431064035989385  28.21813929859803  55.14475713097924  3.405197893977612  -11.619484329809053  24.648620669637832  50.6922072519907  -23.37176025987797  18.339890423493063  0.000000
2.139  0.000000  0.000000  0.000000  -32.68844220260729  5.0350153948684735  27.110967610446803  55.252139130122586  3.218446016879951  -11.639894223884312  24.889492251672415  49.834496399131794  -23.476409335504066  18.45641299715296  0.000000
2.17  0.000000  0.000000  0.000000  -32.43047257190827  4.605806388492061  25.884465033946633  55.34902972807153  3.0987809227524474  -11.582784251535493  25.110909554423554  48.944369173186345  -23.523995912814236  18.581177883763388  0.000000
2.201  0.000000  0.000000  0.000000  -32.18671814186436  4.161347014294731  24.558245139657505  55.42514270212783  3.035664893669816  -11.459274309126277  25.312897410429933  48.02642443305634  -23.52680817643571  18.707917070895917  0.000000
2.232  0.000000  0.000000  0.000000  -31.954158042423398  3.705285200796751  23.151961683375145  55.47261829451834  3.018932219383099  -11.281971882913409  25.49313967131275  47.08601069994774  -23.48979453141932  18.831252565848384  0.000000
2.263  0.000000  0.000000  0.000000  -31.732283666164804  3.241174268348676  21.68566567520726  55.48678704160678  3.041141492621656  -11.061054789537325  25.648523634700666  46.12738411917209  -23.412854948843606  18.947847126725872  0.000000
2.294  0.000000  0.000000  0.000000  -31.52119650968785  2.7720759531765027  20.180912831498606  55.46763651778921  3.099073401133333  -10.805304280255866  25.778347528180692  45.1522934186188  -23.29324821215529  19.053648399635627  0.000000
2.325  0.000000  0.000000  0.000000  -31.320648202691427  2.3013179600092433  18.661697801286145  55.41743529674074  3.189348984460954  -10.523524883883134  25.885598789901426  44.160760629759245  -23.126532182532163  19.145640102416138  0.000000
2.356  0.000000  0.000000  0.000000  -31.132299500481327  1.834260861837026  17.153577641927406  55.34108772615871  3.3056992084779018  -10.223678528989831  25.97748778816248  43.149922072450465  -22.91020982134353  19.22211020745298  0.000000
2.387  0.000000  0.000000  0.000000  -30.95729520159073  1.3774236852386148  15.67774335377569  55.2418525316673  3.438930257031957  -9.91292719867812  26.060773641403816  42.11650819630218  -22.644265351904355  19.28436166115153  0.000000
